<svg version="1.0" xmlns="http://www.w3.org/2000/svg" viewBox="0 0 514 514"><path d="m443 409.1-26.3-52.6c-1.1-2.1-38-75-75.5-149.8l-22.5-44.8 15.2-30.2 22.8-45.2 7.6-15 4.2 8.5c9 18.2 19.5 38.7 21.4 42 1 2 7.6 14.8 14.4 28.5 6.8 13.8 20.4 40.8 30.2 60l22.1 43.6a70 70 0 0 1 5.1 11c.5.3 2.3 3.3 4 6.9l4.8 9c.8 1.4 2 3.6 2.5 5l2 4 12.9 25.5 14.5 29c1.4 2.8 2.6 5.7 2.6 6.5 0 .9-2.7 7-6.1 13.5l-39.2 77.1c-.1 0-7.6-14.6-16.6-32.5m-180 23.2c-2.3-4.9-17-34.2-32.8-65.3L171 248.6l-22.5-44.2-21.4-42.5 14.1-28.2a2857 2857 0 0 0 27.2-54.5l3.8-7.4 13.3 26.4 25.1 49.3a15474 15474 0 0 1 51.3 101l8 16c3.8 7.7 11.3 22.6 16.7 33l18.6 36.3 8.8 17.4-22.6 44.6a1288 1288 0 0 1-23.2 45c-.4.1-2.7-3.7-5-8.5m-171.1-19c4.4-15.3 7.9-28.7 7.9-29.8 0-2-.5-2-42.1-1.7-34.5.3-42 .1-41.3-1l23.8-32.3c17.5-23.5 23-31.7 23-34 .1-2.8 0-2.9-27.4-13.1L7.6 290.8c-.4-.2 21.8-3.4 49.4-7.2a1710 1710 0 0 1 50.5-6.4l23.5 45.6 23.1 45.4-7.3 7.6C132.6 391 84.6 441 84.5 441s3.3-12.5 7.6-27.7" fill="#fcfdfcfe"/></svg>